<svg xmlns="http://www.w3.org/2000/svg" width="1080" height="1080" viewBox="0 0 1080 1080">
  <defs>
    <pattern id="dotgrid" x="0" y="0" width="28" height="28" patternUnits="userSpaceOnUse">
      <circle cx="1.5" cy="1.5" r="1.5" fill="#ffffff" opacity="0.05"/>
    </pattern>
    <linearGradient id="bg" x1="0%" y1="0%" x2="0%" y2="100%">
      <stop offset="0%" style="stop-color:#1a1a1a"/>
      <stop offset="100%" style="stop-color:#222222"/>
    </linearGradient>
  </defs>

  <rect width="1080" height="1080" fill="url(#bg)"/>
  <rect width="1080" height="1080" fill="url(#dotgrid)"/>

  <!-- Top bar -->
  <rect x="0" y="0" width="1080" height="8" fill="#f97316"/>

  <!-- Top label -->
  <text x="540" y="68" font-family="'DM Mono', 'Courier New', monospace" font-size="16" fill="#f97316" text-anchor="middle" letter-spacing="4">// FAQ — REAL ANSWERS</text>

  <!-- Main headline -->
  <text x="540" y="158" font-family="'Bebas Neue', Impact, 'Arial Narrow', sans-serif" font-size="62" fill="#e8e8e8" text-anchor="middle" letter-spacing="3">WE GET THE SAME QUESTIONS.</text>
  <text x="540" y="230" font-family="'Bebas Neue', Impact, 'Arial Narrow', sans-serif" font-size="62" fill="#f97316" text-anchor="middle" letter-spacing="3">HERE ARE THE REAL ANSWERS.</text>

  <!-- Rule -->
  <rect x="72" y="252" width="936" height="2" fill="#2e2e2e"/>

  <!-- Q&A 1 -->
  <rect x="72" y="272" width="936" height="130" rx="6" fill="#2e2e2e"/>
  <rect x="72" y="272" width="6" height="130" fill="#a0a0a0" rx="3"/>
  <text x="100" y="308" font-family="'DM Mono', 'Courier New', monospace" font-size="15" fill="#a0a0a0" letter-spacing="2">Q: IS THIS JUST CHATGPT?</text>
  <text x="100" y="342" font-family="'DM Sans', 'Inter', system-ui, sans-serif" font-size="22" fill="#e8e8e8">No. Custom fine-tuned on your documents only.</text>
  <text x="100" y="370" font-family="'DM Sans', 'Inter', system-ui, sans-serif" font-size="17" fill="#a0a0a0">Runs locally. Zero connection to OpenAI or any external service.</text>
  <!-- Answer indicator -->
  <rect x="1000" y="286" width="8" height="98" fill="#f97316" rx="4"/>

  <!-- Q&A 2 -->
  <rect x="72" y="418" width="936" height="130" rx="6" fill="#2e2e2e"/>
  <rect x="72" y="418" width="6" height="130" fill="#a0a0a0" rx="3"/>
  <text x="100" y="454" font-family="'DM Mono', 'Courier New', monospace" font-size="15" fill="#a0a0a0" letter-spacing="2">Q: WHAT IF I NEED SUPPORT?</text>
  <text x="100" y="488" font-family="'DM Sans', 'Inter', system-ui, sans-serif" font-size="22" fill="#e8e8e8">90-day support included on Plus tier.</text>
  <text x="100" y="516" font-family="'DM Sans', 'Inter', system-ui, sans-serif" font-size="17" fill="#a0a0a0">Or re-engage us anytime. We're not going anywhere.</text>
  <rect x="1000" y="432" width="8" height="98" fill="#f97316" rx="4"/>

  <!-- Q&A 3 -->
  <rect x="72" y="564" width="936" height="130" rx="6" fill="#2e2e2e"/>
  <rect x="72" y="564" width="6" height="130" fill="#a0a0a0" rx="3"/>
  <text x="100" y="600" font-family="'DM Mono', 'Courier New', monospace" font-size="15" fill="#a0a0a0" letter-spacing="2">Q: WHAT IF I WANT TO UPDATE IT?</text>
  <text x="100" y="634" font-family="'DM Sans', 'Inter', system-ui, sans-serif" font-size="22" fill="#e8e8e8">You own the code. Update it yourself or hire us.</text>
  <text x="100" y="662" font-family="'DM Sans', 'Inter', system-ui, sans-serif" font-size="17" fill="#a0a0a0">No lock-in. No permission required. It's yours.</text>
  <rect x="1000" y="578" width="8" height="98" fill="#f97316" rx="4"/>

  <!-- Q&A 4 -->
  <rect x="72" y="710" width="936" height="130" rx="6" fill="#2e2e2e"/>
  <rect x="72" y="710" width="6" height="#a0a0a0" rx="3"/>
  <rect x="72" y="710" width="6" height="130" fill="#a0a0a0" rx="3"/>
  <text x="100" y="746" font-family="'DM Mono', 'Courier New', monospace" font-size="15" fill="#a0a0a0" letter-spacing="2">Q: WHAT'S THE CATCH?</text>
  <text x="100" y="782" font-family="'DM Sans', 'Inter', system-ui, sans-serif" font-size="26" fill="#f97316">There isn't one.</text>
  <text x="100" y="814" font-family="'DM Sans', 'Inter', system-ui, sans-serif" font-size="17" fill="#a0a0a0">That's why we offer a free assessment first. See the work before you commit.</text>
  <rect x="1000" y="724" width="8" height="98" fill="#f97316" rx="4"/>

  <!-- CTA -->
  <rect x="72" y="874" width="936" height="80" rx="6" fill="#f97316" opacity="0.1"/>
  <rect x="72" y="874" width="6" height="80" fill="#f97316" rx="3"/>
  <text x="110" y="910" font-family="'Bebas Neue', Impact, 'Arial Narrow', sans-serif" font-size="34" fill="#f97316" letter-spacing="3">START WITH THE FREE ASSESSMENT</text>
  <text x="110" y="940" font-family="'DM Mono', 'Courier New', monospace" font-size="16" fill="#a0a0a0" letter-spacing="2">MARAPONE.COM/CONTACT</text>

  <!-- Handle -->
  <text x="1008" y="1040" font-family="'DM Sans', 'Inter', system-ui, sans-serif" font-size="22" fill="#a0a0a0" text-anchor="end" letter-spacing="1">@maraponehq</text>
</svg>
