<svg xmlns="http://www.w3.org/2000/svg" width="1080" height="1080" viewBox="0 0 1080 1080">
  <defs>
    <pattern id="dotgrid" x="0" y="0" width="28" height="28" patternUnits="userSpaceOnUse">
      <circle cx="1.5" cy="1.5" r="1.5" fill="#ffffff" opacity="0.05"/>
    </pattern>
    <linearGradient id="bg" x1="0%" y1="0%" x2="0%" y2="100%">
      <stop offset="0%" style="stop-color:#1a1a1a"/>
      <stop offset="100%" style="stop-color:#232323"/>
    </linearGradient>
  </defs>

  <rect width="1080" height="1080" fill="url(#bg)"/>
  <rect width="1080" height="1080" fill="url(#dotgrid)"/>

  <!-- Top bar -->
  <rect x="0" y="0" width="1080" height="8" fill="#f97316"/>

  <!-- Top label -->
  <text x="540" y="66" font-family="'DM Mono', 'Courier New', monospace" font-size="15" fill="#f97316" text-anchor="middle" letter-spacing="4">// COMPETITIVE COMPARISON</text>

  <!-- Main headline -->
  <text x="540" y="142" font-family="'Bebas Neue', Impact, 'Arial Narrow', sans-serif" font-size="56" fill="#e8e8e8" text-anchor="middle" letter-spacing="2">WHY CONSTRUCTION FIRMS</text>
  <text x="540" y="204" font-family="'Bebas Neue', Impact, 'Arial Narrow', sans-serif" font-size="56" fill="#f97316" text-anchor="middle" letter-spacing="2">CHOOSE MARAPONE</text>
  <text x="540" y="254" font-family="'Bebas Neue', Impact, 'Arial Narrow', sans-serif" font-size="44" fill="#a0a0a0" text-anchor="middle" letter-spacing="2">OVER SUBSCRIPTION SOFTWARE</text>

  <!-- Table header -->
  <rect x="72" y="278" width="936" height="54" rx="6" fill="#2e2e2e"/>
  <text x="270" y="312" font-family="'DM Mono', 'Courier New', monospace" font-size="14" fill="#a0a0a0" text-anchor="middle" letter-spacing="3">FEATURE</text>
  <rect x="470" y="286" width="2" height="38" fill="#3a3a3a"/>
  <text x="660" y="312" font-family="'Bebas Neue', Impact, 'Arial Narrow', sans-serif" font-size="18" fill="#a0a0a0" text-anchor="middle" letter-spacing="3">SUBSCRIPTION AI</text>
  <rect x="844" y="286" width="2" height="38" fill="#3a3a3a"/>
  <text x="940" y="312" font-family="'Bebas Neue', Impact, 'Arial Narrow', sans-serif" font-size="18" fill="#f97316" text-anchor="middle" letter-spacing="3">MARAPONE</text>

  <!-- Row 1: Ownership -->
  <rect x="72" y="344" width="936" height="84" rx="4" fill="#2e2e2e"/>
  <rect x="72" y="344" width="936" height="84" rx="4" fill="none" stroke="#3a3a3a" stroke-width="1"/>
  <text x="270" y="378" font-family="'DM Sans', 'Inter', system-ui, sans-serif" font-size="18" fill="#e8e8e8" text-anchor="middle">OWNERSHIP</text>
  <text x="270" y="400" font-family="'DM Mono', 'Courier New', monospace" font-size="12" fill="#a0a0a0" text-anchor="middle">of the software</text>
  <rect x="470" y="352" width="2" height="68" fill="#3a3a3a"/>
  <text x="660" y="390" font-family="'DM Sans', 'Inter', system-ui, sans-serif" font-size="22" fill="#c0392b" text-anchor="middle">✗  Licensed only</text>
  <rect x="844" y="352" width="2" height="68" fill="#3a3a3a"/>
  <text x="940" y="390" font-family="'DM Sans', 'Inter', system-ui, sans-serif" font-size="22" fill="#f97316" text-anchor="middle">✓  Full code</text>

  <!-- Row 2: Data Privacy -->
  <rect x="72" y="440" width="936" height="84" rx="4" fill="#262626"/>
  <rect x="72" y="440" width="936" height="84" rx="4" fill="none" stroke="#3a3a3a" stroke-width="1"/>
  <text x="270" y="474" font-family="'DM Sans', 'Inter', system-ui, sans-serif" font-size="18" fill="#e8e8e8" text-anchor="middle">DATA PRIVACY</text>
  <text x="270" y="496" font-family="'DM Mono', 'Courier New', monospace" font-size="12" fill="#a0a0a0" text-anchor="middle">where it runs</text>
  <rect x="470" y="448" width="2" height="68" fill="#3a3a3a"/>
  <text x="660" y="486" font-family="'DM Sans', 'Inter', system-ui, sans-serif" font-size="22" fill="#c0392b" text-anchor="middle">✗  Cloud-processed</text>
  <rect x="844" y="448" width="2" height="68" fill="#3a3a3a"/>
  <text x="940" y="486" font-family="'DM Sans', 'Inter', system-ui, sans-serif" font-size="22" fill="#f97316" text-anchor="middle">✓  Local deploy</text>

  <!-- Row 3: Monthly Cost -->
  <rect x="72" y="536" width="936" height="84" rx="4" fill="#2e2e2e"/>
  <rect x="72" y="536" width="936" height="84" rx="4" fill="none" stroke="#3a3a3a" stroke-width="1"/>
  <text x="270" y="570" font-family="'DM Sans', 'Inter', system-ui, sans-serif" font-size="18" fill="#e8e8e8" text-anchor="middle">MONTHLY COST</text>
  <text x="270" y="592" font-family="'DM Mono', 'Courier New', monospace" font-size="12" fill="#a0a0a0" text-anchor="middle">ongoing expense</text>
  <rect x="470" y="544" width="2" height="68" fill="#3a3a3a"/>
  <text x="660" y="582" font-family="'DM Sans', 'Inter', system-ui, sans-serif" font-size="22" fill="#c0392b" text-anchor="middle">✗  $299+/month</text>
  <rect x="844" y="544" width="2" height="68" fill="#3a3a3a"/>
  <text x="940" y="582" font-family="'DM Sans', 'Inter', system-ui, sans-serif" font-size="22" fill="#f97316" text-anchor="middle">✓  $0 forever</text>

  <!-- Row 4: Customization -->
  <rect x="72" y="632" width="936" height="84" rx="4" fill="#262626"/>
  <rect x="72" y="632" width="936" height="84" rx="4" fill="none" stroke="#3a3a3a" stroke-width="1"/>
  <text x="270" y="666" font-family="'DM Sans', 'Inter', system-ui, sans-serif" font-size="18" fill="#e8e8e8" text-anchor="middle">CUSTOMIZATION</text>
  <text x="270" y="688" font-family="'DM Mono', 'Courier New', monospace" font-size="12" fill="#a0a0a0" text-anchor="middle">trained on your data</text>
  <rect x="470" y="640" width="2" height="68" fill="#3a3a3a"/>
  <text x="660" y="680" font-family="'DM Sans', 'Inter', system-ui, sans-serif" font-size="22" fill="#c0392b" text-anchor="middle">✗  Generic model</text>
  <rect x="844" y="640" width="2" height="68" fill="#3a3a3a"/>
  <text x="940" y="680" font-family="'DM Sans', 'Inter', system-ui, sans-serif" font-size="22" fill="#f97316" text-anchor="middle">✓  Your docs</text>

  <!-- Row 5: Risk -->
  <rect x="72" y="728" width="936" height="84" rx="4" fill="#2e2e2e"/>
  <rect x="72" y="728" width="936" height="84" rx="4" fill="none" stroke="#3a3a3a" stroke-width="1"/>
  <text x="270" y="762" font-family="'DM Sans', 'Inter', system-ui, sans-serif" font-size="18" fill="#e8e8e8" text-anchor="middle">RISK</text>
  <text x="270" y="784" font-family="'DM Mono', 'Courier New', monospace" font-size="12" fill="#a0a0a0" text-anchor="middle">before you commit</text>
  <rect x="470" y="736" width="2" height="68" fill="#3a3a3a"/>
  <text x="660" y="776" font-family="'DM Sans', 'Inter', system-ui, sans-serif" font-size="20" fill="#c0392b" text-anchor="middle">✗  Subscribe &amp; discover</text>
  <rect x="844" y="736" width="2" height="68" fill="#3a3a3a"/>
  <text x="940" y="776" font-family="'DM Sans', 'Inter', system-ui, sans-serif" font-size="20" fill="#f97316" text-anchor="middle">✓  Free assessment</text>

  <!-- CTA -->
  <rect x="72" y="844" width="936" height="80" rx="6" fill="#f97316" opacity="0.1"/>
  <rect x="72" y="844" width="6" height="80" fill="#f97316" rx="3"/>
  <text x="110" y="880" font-family="'Bebas Neue', Impact, 'Arial Narrow', sans-serif" font-size="34" fill="#e8e8e8" letter-spacing="2">SEE THE DIFFERENCE FOR FREE.</text>
  <text x="110" y="910" font-family="'DM Mono', 'Courier New', monospace" font-size="16" fill="#f97316" letter-spacing="2">MARAPONE.COM/CONTACT</text>

  <!-- Handle -->
  <text x="1008" y="1040" font-family="'DM Sans', 'Inter', system-ui, sans-serif" font-size="22" fill="#a0a0a0" text-anchor="end" letter-spacing="1">@maraponehq</text>
</svg>
