<svg width="130" height="30" viewBox="0 0 130 30" fill="none" xmlns="http://www.w3.org/2000/svg">
<g clip-path="url(#clip0_503_6825)">
<g clip-path="url(#clip1_503_6825)">
<path opacity="0.3" d="M14.492 18.44C11.5378 19.2316 8.50116 17.4784 7.70957 14.5241C6.91798 11.5699 8.67117 8.53325 11.6254 7.74166C14.5797 6.95006 17.6163 8.70326 18.4079 11.6575C19.1995 14.6118 17.4463 17.6484 14.492 18.44Z" fill="#F52C5C"/>
<path opacity="0.3" fill-rule="evenodd" clip-rule="evenodd" d="M27.3774 6.89218C29.3041 7.4083 29.9509 9.81582 28.5421 11.228L20.0849 19.7054C20.0047 19.7899 19.9252 19.8693 19.847 19.9433C19.4056 20.3605 18.711 20.346 18.2874 19.9108C17.8637 19.4756 17.868 18.7809 18.2969 18.3509L18.4904 18.157C19.5405 17.0399 21.1174 14.3367 20.2563 11.1231C19.4003 7.92836 16.7132 6.38748 15.2415 5.94216L14.9526 5.86476C14.3664 5.70776 14.0146 5.10962 14.1622 4.52107C14.3098 3.93251 14.9023 3.57118 15.4931 3.70935C15.6071 3.73602 15.7257 3.76755 15.8479 3.80379L27.3774 6.89218Z" fill="#F52C5C"/>
<path opacity="0.3" fill-rule="evenodd" clip-rule="evenodd" d="M11.2403 28.5768C9.82994 29.9873 7.4216 29.3437 6.90303 27.4176L3.78992 15.8547C3.75689 15.743 3.72785 15.6344 3.70291 15.5297C3.5623 14.9388 3.92211 14.3445 4.51083 14.1953C5.09956 14.046 5.69906 14.397 5.85696 14.9835L5.92817 15.248C6.37052 16.716 7.92315 19.4332 11.1368 20.2942C14.3315 21.1503 17.0095 19.5936 18.131 18.5418L18.3425 18.3303C18.7715 17.9012 19.4654 17.8956 19.9013 18.3177C20.3372 18.7398 20.3539 19.4335 19.9388 19.8761C19.8587 19.9615 19.7721 20.0484 19.6797 20.1361L11.2403 28.5768Z" fill="#F52C5C"/>
<path fill-rule="evenodd" clip-rule="evenodd" d="M0.543451 3.74365C0.027042 1.81697 1.78864 0.0531129 3.71598 0.567069L15.2863 3.65248C15.3995 3.67971 15.5081 3.70884 15.6113 3.73963C16.1933 3.91328 16.528 4.52203 16.3629 5.10652C16.1978 5.691 15.5941 6.03466 15.0072 5.87817L14.7426 5.8076C13.2501 5.4567 10.1206 5.44272 7.7681 7.79524C5.42938 10.134 5.43849 13.2315 5.78865 14.7286L5.8661 15.0176C6.02319 15.6037 5.68109 16.2074 5.09758 16.3739C4.51408 16.5403 3.90494 16.2079 3.72918 15.6271C3.69526 15.5151 3.66328 15.3966 3.63358 15.2727L0.543451 3.74365Z" fill="#F52C5C"/>
</g>
<path d="M72.0097 19.82C70.7744 19.9333 70.1023 20.4405 69.8933 21.4187C69.8116 21.8127 69.8116 22.9811 69.8933 23.3751C70.1113 24.3941 70.7472 24.8515 72.1142 24.9602C73.3086 25.0598 74.3487 24.8877 74.8528 24.5073C75.4068 24.0907 75.5976 23.5517 75.5976 22.3969C75.5976 21.31 75.4477 20.8118 74.9981 20.3997C74.5712 20.0057 73.9944 19.8427 72.9408 19.82C72.5411 19.811 72.1233 19.811 72.0097 19.82ZM73.3268 20.7032C74.2624 20.8164 74.5439 21.147 74.5848 22.1705C74.6302 23.117 74.4894 23.5834 74.0943 23.8506C73.7946 24.0499 73.4222 24.1178 72.6456 24.1088C71.2104 24.0997 70.8289 23.7419 70.8289 22.3969C70.8289 21.4504 71.0287 21.0156 71.5647 20.8164C71.9507 20.6669 72.6864 20.6216 73.3268 20.7032Z" fill="#000C37"/>
<path d="M36.085 24.874H36.5391H36.9933V24.5705V24.2716L37.125 24.4528C37.3975 24.8242 38.0833 25.0098 38.8644 24.9238C39.8045 24.8151 40.2542 24.412 40.404 23.5425C40.4676 23.1621 40.4358 22.4058 40.3359 22.0888C40.1769 21.577 39.8409 21.2419 39.3322 21.0879C38.9734 20.9793 38.2967 20.9566 37.9107 21.0427C37.5156 21.1242 37.3021 21.2464 37.125 21.491L36.9933 21.6722V19.8659H36.085V24.874ZM38.9916 21.8714C39.2096 21.9575 39.3867 22.1386 39.4548 22.3333C39.4866 22.4239 39.5093 22.7002 39.5139 22.9493C39.5139 23.6467 39.3413 23.9818 38.9098 24.1041C38.6646 24.172 37.779 24.1584 37.5701 24.086C37.1704 23.9411 37.0251 23.6648 37.0205 23.0398C37.016 22.4828 37.0523 22.2881 37.2067 22.1114C37.3612 21.9258 37.5519 21.8307 37.8562 21.7899C38.1877 21.7446 38.7918 21.7899 38.9916 21.8714Z" fill="#000C37"/>
<path d="M47.221 22.3834L47.2346 24.8878C48.1566 24.8968 50.4728 24.8923 50.6999 24.8651C51.7444 24.7293 52.2849 24.3398 52.5392 23.5337C52.6255 23.2484 52.6391 23.1171 52.6391 22.397C52.6391 21.6769 52.6255 21.5456 52.5392 21.2603C52.3348 20.6172 51.9125 20.2187 51.2267 20.0194C50.8815 19.9198 50.7907 19.8926 49.0376 19.8745H47.2119L47.221 22.3834ZM50.9179 20.8708C51.204 21.0021 51.3993 21.1969 51.5355 21.4912C51.6264 21.695 51.64 21.7856 51.64 22.397C51.64 23.0084 51.6264 23.0989 51.5355 23.3027C51.3947 23.6107 51.1949 23.8054 50.8952 23.9232C50.659 24.0183 50.5545 24.0409 49.4282 24.0545H48.2111V22.397V20.7395H49.4509C50.6272 20.753 50.6953 20.7712 50.9179 20.8708Z" fill="#000C37"/>
<path d="M53.5784 22.3832L53.592 24.8737H54.5685V23.2346H55.9446C57.3979 23.2346 57.7385 23.1984 58.1019 23.0127C58.3426 22.8904 58.5878 22.5961 58.6877 22.3107C58.8013 21.9802 58.7967 21.1287 58.6832 20.7936C58.5833 20.5083 58.3516 20.2321 58.0973 20.1052C57.7158 19.9105 57.4252 19.8833 55.4405 19.8833H53.5693L53.5784 22.3832ZM57.4024 20.8117C57.7067 20.9657 57.7703 21.097 57.7703 21.559C57.7703 22.0209 57.7067 22.1522 57.4024 22.3062C57.239 22.3877 57.1163 22.3968 55.8992 22.4104L54.5685 22.4285V21.559V20.6895L55.8992 20.7076C57.1118 20.7212 57.239 20.7302 57.4024 20.8117Z" fill="#000C37"/>
<path d="M60.8545 19.8789C60.8545 19.8789 62.2183 24.3592 62.3818 24.8755L63.7655 24.8755L64.474 22.9901L65.1825 21.088C65.4508 21.786 65.709 22.4879 65.9682 23.1893L66.5828 24.8717H67.9304L68.6931 22.3968L69.4516 19.8737C69.1231 19.8737 68.7944 19.8676 68.466 19.8737C68.4479 19.8918 68.1845 20.8163 67.8756 21.876L67.2898 23.855C67.2716 23.8867 66.5132 21.8986 66.5132 21.8986L65.7682 19.8789H64.6328L63.9063 21.8533C63.5066 22.9357 63.166 23.846 63.1478 23.8732C63.1343 23.9002 62.7001 22.4925 62.4802 21.7401L61.9172 19.8789H60.8545Z" fill="#000C37"/>
<path d="M76.5159 22.3832L76.5295 24.8737H77.506V23.9592V22.9991L78.8821 23.0172C80.3717 23.0308 80.4262 23.0399 80.6124 23.2935C80.6987 23.4112 80.7078 23.4973 80.7214 24.1675V24.8736H81.707V24.0724C81.707 23.5154 81.6888 23.2029 81.6479 23.0852C81.5616 22.8406 81.3618 22.664 81.0984 22.596C81.0254 22.5778 80.94 22.5456 80.94 22.5456C80.94 22.5456 80.94 22.5456 81.1275 22.5025C81.4908 22.4346 81.6661 22.0209 81.7115 21.4593C81.766 20.8208 81.5934 20.3543 81.2119 20.1324C80.8304 19.9105 80.5625 19.8833 78.4461 19.8833H76.5068L76.5159 22.3832ZM80.458 20.8615C80.567 20.9204 80.6352 21.011 80.676 21.1333C80.7532 21.3506 80.7214 21.7492 80.617 21.9077C80.4671 22.1296 80.3445 22.1477 78.8685 22.1477H77.506V21.4412V20.7393L78.9048 20.7528C80.2128 20.7664 80.3082 20.771 80.458 20.8615Z" fill="#000C37"/>
<path d="M82.6816 22.3647V24.8782H84.8162H86.9507V24.0177H85.3158H83.6808V21.9345L83.6808 19.8698H83.1812H82.6816V22.3647Z" fill="#000C37"/>
<path d="M87.6885 22.3834V24.8747C87.6885 24.8747 90.938 24.9019 91.1651 24.8747C92.2096 24.7388 92.7501 24.3398 93.0044 23.5337C93.0907 23.2484 93.1043 23.1171 93.1043 22.397C93.1043 21.6769 93.0907 21.5456 93.0044 21.2603C92.8001 20.6172 92.3777 20.2187 91.6919 20.0194C91.3467 19.9198 91.2559 19.8926 89.5028 19.8745H87.6885V22.3834ZM91.3785 20.8708C91.9144 21.1199 92.1279 21.5501 92.1279 22.397C92.1279 23.2529 91.9008 23.7103 91.3604 23.9232C91.1242 24.0183 91.0197 24.0274 89.8934 24.0409H88.6763V22.397V20.7395H89.9161C91.0924 20.7531 91.1605 20.7712 91.3785 20.8708Z" fill="#000C37"/>
<path d="M40.5811 21.1057L42.3159 24.8827L41.7165 26.1213H42.652L44.9228 21.1057H44.0281L42.8064 23.8229L41.562 21.1057H40.5811Z" fill="#000C37"/>
<path d="M123.488 4.07291C122.489 4.25406 121.753 4.6073 121.167 5.18698C120.876 5.47229 120.763 5.6308 120.613 5.93422C120.354 6.46409 120.281 6.76751 120.281 7.36078C120.277 8.48843 120.649 9.19039 121.58 9.8063C122.162 10.1912 122.748 10.3996 124.555 10.8706C125.818 11.1966 126.558 11.4412 126.903 11.6495C127.294 11.8805 127.625 12.202 127.766 12.4918C127.884 12.7273 127.893 12.7907 127.893 13.2708C127.893 13.769 127.884 13.8052 127.743 14.095C127.344 14.9011 126.54 15.3314 125.182 15.4536C123.574 15.6031 121.821 15.114 120.745 14.2218L120.472 13.9954L120.318 14.2807C120.231 14.4347 120.118 14.6521 120.059 14.7607L119.959 14.9555L120.091 15.0913C120.581 15.6076 121.73 16.1511 122.829 16.3866C123.819 16.5994 125.055 16.6311 125.977 16.4681C127.253 16.2371 128.288 15.6212 128.77 14.8015C129.056 14.3169 129.156 13.9501 129.178 13.2934C129.21 12.3605 129.047 11.8759 128.511 11.3144C127.857 10.6169 127.212 10.3316 124.987 9.75195C123.006 9.24021 122.584 9.07264 122.075 8.59713C121.662 8.20765 121.58 7.99933 121.58 7.31549C121.58 6.79469 121.585 6.75846 121.726 6.47314C122.18 5.55381 123.224 5.07376 124.778 5.07376C125.913 5.07376 127.044 5.37266 127.97 5.91158C128.12 6.00216 128.252 6.06556 128.261 6.06103C128.266 6.05197 128.365 5.82553 128.479 5.55381C128.59 5.29102 128.694 5.05338 128.694 5.05338C128.694 5.05338 128.469 4.90965 128.138 4.73864C127.689 4.50314 127.107 4.29935 126.422 4.13631C125.999 4.03668 125.813 4.01857 124.941 4.00498C124.115 3.99139 123.865 4.00498 123.488 4.07291Z" fill="#F52C5C"/>
<path d="M73.5195 10.2044V16.4889H74.7912V14.4388V12.4688H76.5079C77.4571 12.4688 78.4426 12.4552 78.7015 12.4416L79.1738 12.4144L80.5953 14.4116L82.0632 16.487H83.4757C83.4757 16.487 82.3558 14.9083 81.8216 14.158C81.054 13.0801 80.4228 12.1835 80.4228 12.1653C80.4228 12.1427 80.5499 12.0793 80.7089 12.0204C81.4446 11.7442 82.1758 11.169 82.5891 10.5486C83.2704 9.53414 83.4293 7.92643 82.9706 6.68103C82.4438 5.24089 81.1222 4.3125 79.2556 4.06794C78.8468 4.0136 78.1838 4.00001 76.1264 4.00001H73.5195V10.2044ZM78.6652 5.1322C79.3964 5.19107 79.8414 5.30429 80.3728 5.56696C81.154 5.9519 81.6808 6.6131 81.8534 7.42827C81.9397 7.8268 81.9397 8.6465 81.8534 9.04503C81.6308 10.0912 80.827 10.8611 79.6144 11.1917L79.1738 11.3094L76.9848 11.3275L74.7912 11.3411V8.21627V5.08691H76.4443C77.3481 5.08691 78.3518 5.10955 78.6652 5.1322Z" fill="#F52C5C"/>
<path d="M84.9062 16.4895H86.2506L87.7493 13.1473H94.6979L96.2064 16.4895H97.5773C97.5773 16.4895 93.78 8.21671 91.8822 4.07848H90.5833L84.9062 16.4895ZM94.1984 12.0762H88.2398L91.2282 5.41446L94.1984 12.0762Z" fill="#F52C5C"/>
<path d="M97.0791 4.62193V5.16538H99.2591H101.439V10.8263V16.4872H102.098H102.756V10.8263V5.16538H104.936H107.116V4.62193V4.07848H102.098H97.0791V4.62193Z" fill="#F52C5C"/>
<path d="M109.251 10.2829V16.4872H113.634H118.016V15.9212V15.3551H114.269H110.523V13.0454V10.7357H113.747H116.972V10.1923V9.64884L113.761 9.63978L110.545 9.6262V7.40711V5.18803L114.17 5.17444L117.789 5.16538V4.62193V4.07848H113.52H109.251V10.2829Z" fill="#F52C5C"/>
<path d="M45.8405 13.6001H39.595L38.3638 16.4909H35.9727L41.5936 4H43.8776L49.5163 16.4909H47.0895L45.8405 13.6001ZM45.0732 11.78L42.7177 6.31973L40.3802 11.78H45.0732Z" fill="#F52C5C"/>
<path d="M52.1639 4.00001H54.4836V16.4909H52.1639V4.00001Z" fill="#F52C5C"/>
<path d="M67.3115 16.4909L64.7598 12.8328C64.6527 12.8447 64.4922 12.8507 64.278 12.8507H61.4587V16.4909H59.1389V4.00001H64.278C65.3606 4.00001 66.3004 4.17845 67.0974 4.53533C67.9063 4.89221 68.5249 5.40374 68.9532 6.06992C69.3814 6.73611 69.5956 7.52719 69.5956 8.44319C69.5956 9.38298 69.3636 10.1919 68.8997 10.87C68.4476 11.5481 67.7933 12.0537 66.9368 12.3867L69.8097 16.4909H67.3115ZM67.258 8.44319C67.258 7.64615 66.9963 7.03351 66.4728 6.60525C65.9494 6.17699 65.1821 5.96286 64.171 5.96286H61.4587V10.9414H64.171C65.1821 10.9414 65.9494 10.7272 66.4728 10.299C66.9963 9.85883 67.258 9.24023 67.258 8.44319Z" fill="#F52C5C"/>
</g>
<defs>
<clipPath id="clip0_503_6825">
<rect width="130" height="30" fill="white"/>
</clipPath>
<clipPath id="clip1_503_6825">
<rect width="30" height="30" fill="white" transform="translate(-0.0273438)"/>
</clipPath>
</defs>
</svg>
