<svg xmlns="http://www.w3.org/2000/svg" fill="none" viewBox="0 0 217.83 52" style="max-height: 500px" width="217.83" height="52">
<mask height="50" width="216" y="1" x="0" maskUnits="userSpaceOnUse" style="mask-type:luminance" id="mask0_16951_779">
<path fill="white" d="M215.323 1.25385H0.861816V50.7462H215.323V1.25385Z"/>
</mask>
<g mask="url(#mask0_16951_779)">
<mask height="50" width="51" y="1" x="0" maskUnits="userSpaceOnUse" style="mask-type:luminance" id="mask1_16951_779">
<path fill="white" d="M50.353 1.25412H0.848389V50.76H50.353V1.25412Z"/>
</mask>
<g mask="url(#mask1_16951_779)">
<path fill="white" d="M1.79094 7.43733C0.937938 4.25489 3.84772 1.34141 7.03128 2.19035L26.143 7.28674C26.3299 7.33171 26.5092 7.37984 26.6797 7.4307C27.641 7.71752 28.194 8.72304 27.9213 9.68847C27.6486 10.6539 26.6513 11.2216 25.682 10.9631L25.2449 10.8465C22.7796 10.2669 17.6103 10.2438 13.7245 14.1296C9.86144 17.9926 9.87648 23.1092 10.4549 25.582L10.5828 26.0592C10.8423 27.0273 10.2772 28.0246 9.31337 28.2996C8.34955 28.5744 7.34338 28.0254 7.05307 27.0661C6.99704 26.881 6.94422 26.6853 6.89517 26.4806L1.79094 7.43733Z" clip-rule="evenodd" fill-rule="evenodd" opacity="0.3"/>
<path fill="white" d="M24.8304 31.7119C19.9506 33.0195 14.9347 30.1237 13.6272 25.2439C12.3196 20.3641 15.2155 15.3483 20.0954 14.0407C24.9751 12.7332 29.991 15.6291 31.2986 20.5088C32.606 25.3886 29.7102 30.4044 24.8304 31.7119Z" opacity="0.3"/>
<path fill="white" d="M46.1141 12.6376C49.2967 13.4901 50.3651 17.4668 48.0381 19.7994L34.0686 33.8022C33.9361 33.9416 33.8048 34.0728 33.6755 34.195C32.9464 34.8841 31.7992 34.8602 31.0994 34.1414C30.3997 33.4225 30.4066 32.2751 31.1152 31.5649L31.4348 31.2445C33.1693 29.3994 35.7739 24.9342 34.3517 19.6262C32.9377 14.3491 28.4992 11.804 26.0683 11.0684L25.591 10.9406C24.6229 10.6812 24.0417 9.69322 24.2855 8.72107C24.5294 7.74891 25.508 7.15208 26.4838 7.38031C26.6722 7.42434 26.8681 7.47642 27.0698 7.53629L46.1141 12.6376Z" clip-rule="evenodd" fill-rule="evenodd" opacity="0.3"/>
<path fill="white" d="M19.4593 48.4556C17.1297 50.7855 13.1517 49.7223 12.2952 46.5409L7.15297 27.4417C7.09841 27.2572 7.05043 27.0779 7.00926 26.9048C6.77699 25.9288 7.37131 24.9472 8.34376 24.7006C9.31619 24.4541 10.3065 25.0339 10.5673 26.0026L10.6849 26.4394C11.4156 28.8642 13.9802 33.3524 19.2883 34.7748C24.5653 36.1888 28.9888 33.6175 30.8414 31.8801L31.1906 31.5307C31.8993 30.822 33.0454 30.8127 33.7655 31.5099C34.4855 32.2071 34.5131 33.353 33.8274 34.084C33.6951 34.2252 33.5521 34.3688 33.3995 34.5136L19.4593 48.4556Z" clip-rule="evenodd" fill-rule="evenodd"/>
</g>
<path fill="white" d="M69.1866 7.88921C66.7141 8.12829 64.6686 9.04724 63.5596 10.407C63.1177 10.9449 62.6457 11.8639 62.4659 12.5438C62.286 13.2162 62.286 14.7852 62.4733 15.4576C62.7805 16.5783 63.4923 17.5122 64.5937 18.2295C65.5153 18.8272 66.6841 19.2381 69.3665 19.9104C72.3784 20.6576 73.1127 20.9415 73.832 21.6288C74.3715 22.1443 74.5437 22.5627 74.4913 23.2576C74.4388 23.8404 74.2441 24.2214 73.7645 24.6696C73.3 25.103 72.6407 25.4244 71.884 25.5737C69.2615 26.1042 66.0173 25.4318 63.687 23.8703C63.4024 23.6835 63.1625 23.5341 63.1551 23.5415C63.1475 23.5565 62.8479 24.2139 62.4957 25.0058L61.8513 26.4479L62.286 26.7691C63.5298 27.6731 65.5078 28.3904 67.7256 28.7266C68.8644 28.891 71.0598 28.891 72.1087 28.7191C74.8435 28.2708 76.7316 27.0978 77.6232 25.2823C78.0952 24.326 78.2077 23.818 78.2077 22.742C78.2001 21.1581 77.833 20.2616 76.7615 19.2456C75.6527 18.1996 74.5139 17.7214 71.1721 16.8772C68.2949 16.1524 67.6806 15.9358 66.9014 15.3754C66.0547 14.7702 65.8224 13.7541 66.2944 12.7306C66.6467 11.9685 67.4409 11.4156 68.5723 11.1467C69.3889 10.9524 71.5842 10.9599 72.4833 11.1467C73.4273 11.3484 74.6637 11.7743 75.4729 12.1777C75.8624 12.3794 76.1922 12.5289 76.1996 12.5214C76.2446 12.4691 77.3534 9.69724 77.3534 9.63747C77.3534 9.52541 75.735 8.75587 74.9933 8.51678C74.1616 8.24783 73.0527 8.02369 72.0937 7.91908C71.4194 7.84438 69.7934 7.82944 69.1866 7.88921Z"/>
<path fill="white" d="M205.882 8.12632C204.234 8.42517 203.02 9.00793 202.055 9.96425C201.575 10.4349 201.386 10.6964 201.139 11.197C200.713 12.0712 200.593 12.5717 200.593 13.5505C200.585 15.4108 201.2 16.5689 202.736 17.5849C203.694 18.2199 204.661 18.5637 207.644 19.3408C209.726 19.8786 210.947 20.2821 211.518 20.6258C212.161 21.0068 212.709 21.5372 212.941 22.0153C213.136 22.4038 213.151 22.5084 213.151 23.3005C213.151 24.1222 213.136 24.1821 212.903 24.6602C212.244 25.9901 210.917 26.6999 208.677 26.9015C206.026 27.1482 203.134 26.3413 201.357 24.8694L200.908 24.4959L200.652 24.9666C200.51 25.2206 200.322 25.5793 200.225 25.7584L200.06 26.0798L200.278 26.3038C201.088 27.1556 202.983 28.0522 204.797 28.4408C206.43 28.7918 208.467 28.8441 209.988 28.5752C212.093 28.1941 213.803 27.178 214.596 25.8257C215.068 25.0263 215.233 24.4212 215.271 23.3378C215.324 21.7987 215.053 20.9993 214.169 20.0729C213.09 18.9222 212.026 18.4516 208.355 17.4954C205.089 16.651 204.392 16.3746 203.553 15.5901C202.871 14.9476 202.736 14.6039 202.736 13.4757C202.736 12.6165 202.743 12.5568 202.975 12.0861C203.724 10.5694 205.448 9.77747 208.01 9.77747C209.884 9.77747 211.749 10.2706 213.278 11.1597C213.525 11.3091 213.741 11.4137 213.758 11.4062C213.765 11.3913 213.93 11.0177 214.118 10.5694C214.299 10.1359 214.472 9.74383 214.472 9.74383C214.472 9.74383 214.101 9.50673 213.555 9.22459C212.813 8.83609 211.854 8.49989 210.722 8.23091C210.026 8.06655 209.719 8.03666 208.281 8.01425C206.916 7.99183 206.504 8.01425 205.882 8.12632Z"/>
<path fill="white" d="M80.8525 18.3712V28.6069H88.5323H96.2121V27.0005V25.3942H90.4055H84.5988V22.5551V19.7161H89.5812H94.5638V18.1844V16.6528H89.5812H84.5988V13.9631V11.2735H90.2182H95.8376V9.70448V8.13553H88.3451H80.8525V18.3712Z"/>
<path fill="white" d="M98.8191 28.6069H102.716L104.739 23.8625H115.064L117.102 28.6069H121.033L111.797 8.13553H108.081L98.8191 28.6069ZM113.768 20.8778H106.05L109.857 11.9907L113.768 20.8778Z"/>
<path fill="white" d="M123.45 18.2417V28.6095H125.548V25.2274V21.9774H128.38C129.946 21.9774 131.572 21.955 131.999 21.9325L132.778 21.8876L135.123 25.1825L137.545 28.6064H139.875C139.875 28.6064 138.028 26.0018 137.146 24.7641C135.88 22.9859 134.838 21.5066 134.838 21.4767C134.838 21.4394 135.048 21.3348 135.31 21.2376C136.524 20.782 137.73 19.8331 138.412 18.8096C139.536 17.1359 139.798 14.4836 139.042 12.429C138.173 10.0532 135.992 8.52157 132.913 8.11811C132.238 8.02846 131.145 8.00604 127.75 8.00604H123.45V18.2417ZM131.939 9.87387C133.145 9.97099 133.879 10.1578 134.756 10.5911C136.045 11.2262 136.914 12.317 137.199 13.6618C137.341 14.3193 137.341 15.6716 137.199 16.3291C136.831 18.055 135.505 19.3251 133.505 19.8703L132.778 20.0647L129.167 20.0945L125.548 20.117V14.9618V9.79915H128.275C129.766 9.79915 131.422 9.83652 131.939 9.87387Z"/>
<path fill="white" d="M142.234 28.6105H144.452L146.925 23.0967H158.388L160.877 28.6105H163.139C163.139 28.6105 156.874 14.9625 153.743 8.1355H151.6L142.234 28.6105ZM157.564 21.3297H147.734L152.664 10.3395L157.564 21.3297Z"/>
<path fill="white" d="M162.317 9.03208V9.92863H165.913H169.51V19.2677V28.6069H170.597H171.682V19.2677V9.92863H175.279H178.875V9.03208V8.13553H170.597H162.317V9.03208Z"/>
<path fill="white" d="M182.397 18.3712V28.6069H189.628H196.857V27.673V26.739H190.676H184.496V22.9286V19.1184H189.815H195.135V18.2217V17.3253L189.838 17.3102L184.532 17.2878V13.6269V9.96599L190.512 9.94356L196.483 9.92863V9.03208V8.13553H189.44H182.397V18.3712Z"/>
<path fill="white" d="M120.96 34.105C118.922 34.2919 117.813 35.1288 117.468 36.7429C117.333 37.393 117.333 39.3209 117.468 39.971C117.828 41.6524 118.877 42.4071 121.132 42.5865C123.103 42.7508 124.819 42.4668 125.651 41.8392C126.565 41.1518 126.88 40.2624 126.88 38.3569C126.88 36.5635 126.633 35.7415 125.891 35.0615C125.187 34.4114 124.235 34.1424 122.496 34.105C121.837 34.0901 121.147 34.0901 120.96 34.105ZM123.133 35.5623C124.677 35.7491 125.142 36.2946 125.209 37.9834C125.284 39.5451 125.052 40.3147 124.4 40.7556C123.905 41.0844 123.291 41.1965 122.009 41.1816C119.641 41.1666 119.012 40.5762 119.012 38.3569C119.012 36.7952 119.341 36.0778 120.226 35.7491C120.863 35.5024 122.077 35.4276 123.133 35.5623Z"/>
<path fill="white" d="M61.6946 42.4442H62.4439H63.1933V41.9436V41.4504L63.4106 41.7493C63.8603 42.3621 64.9919 42.6683 66.2807 42.5264C67.8319 42.3471 68.5738 41.6819 68.8211 40.2472C68.9261 39.6196 68.8736 38.3716 68.7088 37.8486C68.4464 37.0043 67.892 36.4512 67.0526 36.1971C66.4606 36.0179 65.344 35.9804 64.7071 36.1225C64.0551 36.257 63.7029 36.4588 63.4106 36.8622L63.1933 37.1612V34.1807H61.6946V42.4442ZM66.4906 37.4899C66.8503 37.6319 67.1425 37.9308 67.2549 38.2522C67.3074 38.4015 67.3448 38.8574 67.3524 39.2684C67.3524 40.4192 67.0676 40.9721 66.3556 41.1739C65.951 41.2859 64.4898 41.2635 64.1451 41.144C63.4855 40.9049 63.2458 40.449 63.2382 39.4178C63.2308 38.4987 63.2907 38.1774 63.5454 37.8859C63.8002 37.5796 64.115 37.4227 64.6171 37.3554C65.1641 37.2806 66.1609 37.3554 66.4906 37.4899Z"/>
<path fill="white" d="M80.0648 38.3346L80.0873 42.467C81.6086 42.482 85.4304 42.4746 85.8052 42.4297C87.5286 42.2055 88.4205 41.5628 88.8401 40.2327C88.9825 39.7619 89.0049 39.5453 89.0049 38.3571C89.0049 37.1689 88.9825 36.9523 88.8401 36.4815C88.5028 35.4204 87.806 34.7628 86.6744 34.434C86.1048 34.2696 85.955 34.2248 83.0623 34.1949H80.0498L80.0648 38.3346ZM86.1649 35.8388C86.637 36.0556 86.9592 36.3769 87.1839 36.8627C87.3339 37.1989 87.3564 37.3483 87.3564 38.3571C87.3564 39.3659 87.3339 39.5154 87.1839 39.8517C86.9516 40.3597 86.6219 40.6812 86.1274 40.8754C85.7377 41.0323 85.5652 41.0696 83.7068 41.092H81.6985V38.3571V35.6222H83.7443C85.6852 35.6446 85.7976 35.6745 86.1649 35.8388Z"/>
<path fill="white" d="M90.5536 38.3343L90.576 42.4437H92.1873V39.7392H94.4579C96.8559 39.7392 97.4179 39.6794 98.0174 39.373C98.4146 39.1714 98.8193 38.6856 98.9842 38.2149C99.1714 37.6694 99.164 36.2645 98.9767 35.7115C98.8117 35.2407 98.4296 34.785 98.01 34.5757C97.3805 34.2543 96.9008 34.2096 93.6261 34.2096H90.5386L90.5536 38.3343ZM96.8634 35.7415C97.3655 35.9954 97.4704 36.2122 97.4704 36.9744C97.4704 37.7365 97.3655 37.9534 96.8634 38.2073C96.5936 38.3419 96.3913 38.3568 94.383 38.3792L92.1873 38.4091V36.9744V35.5397L94.383 35.5696C96.3839 35.592 96.5936 35.6068 96.8634 35.7415Z"/>
<path fill="white" d="M102.556 34.2022C102.556 34.2022 104.806 41.5935 105.076 42.4453H107.359L108.528 39.3349L109.696 36.1969C110.139 37.3484 110.565 38.5064 110.993 39.6636L112.007 42.439H114.23L115.488 38.3561L116.739 34.1936C116.198 34.1936 115.655 34.1835 115.114 34.1936C115.084 34.2235 114.649 35.7486 114.14 37.4969L113.173 40.7619C113.143 40.8142 111.892 37.5343 111.892 37.5343L110.663 34.2022H108.79L107.591 37.4596C106.932 39.2451 106.37 40.7469 106.34 40.7917C106.318 40.8363 105.601 38.5141 105.238 37.2728L104.31 34.2022H102.556Z"/>
<path fill="white" d="M128.394 38.3343L128.417 42.4437H130.028V40.9348V39.3506L132.298 39.3806C134.756 39.4029 134.846 39.4179 135.154 39.8364C135.296 40.0307 135.311 40.1726 135.333 41.2787V42.4437H136.96V41.1217C136.96 40.2025 136.93 39.6869 136.862 39.4927C136.72 39.0891 136.39 38.7977 135.955 38.6856C135.835 38.6556 135.694 38.6023 135.694 38.6023C135.694 38.6023 135.694 38.6023 136.003 38.5314C136.603 38.4193 136.892 37.7365 136.967 36.81C137.057 35.7563 136.772 34.9868 136.143 34.6205C135.513 34.2543 135.071 34.2096 131.579 34.2096H128.379L128.394 38.3343ZM134.899 35.8237C135.079 35.9207 135.191 36.0702 135.258 36.272C135.386 36.6307 135.333 37.2882 135.161 37.5498C134.914 37.9159 134.711 37.9458 132.276 37.9458H130.028V36.7802V35.6219L132.336 35.6443C134.494 35.6667 134.651 35.6742 134.899 35.8237Z"/>
<path fill="white" d="M138.566 38.3038V42.4512H142.088H145.61V41.0313H142.913H140.215V37.594V34.1871H139.391H138.566V38.3038Z"/>
<path fill="white" d="M146.825 38.3346V42.4454C146.825 42.4454 152.187 42.4903 152.561 42.4454C154.285 42.2211 155.177 41.5628 155.596 40.2327C155.739 39.7619 155.761 39.5453 155.761 38.3571C155.761 37.1689 155.739 36.9523 155.596 36.4815C155.259 35.4204 154.562 34.7628 153.431 34.434C152.861 34.2696 152.711 34.2248 149.819 34.1949H146.825V38.3346ZM152.914 35.8388C153.798 36.2498 154.15 36.9597 154.15 38.3571C154.15 39.7693 153.775 40.5241 152.884 40.8754C152.494 41.0323 152.322 41.0473 150.463 41.0696H148.455V38.3571V35.6222H150.501C152.441 35.6446 152.554 35.6745 152.914 35.8388Z"/>
<path fill="white" d="M69.1111 36.2261L71.9737 42.4582L70.9845 44.502H72.5283L76.2752 36.2261H74.799L72.7831 40.7097L70.7298 36.2261H69.1111Z"/>
</g>
<path stroke-width="0.5" stroke="white" d="M231.323 8L231.323 44"/>
<path fill="white" d="M250.994 36V15.5057H259.836C262.12 15.5057 263.886 15.9644 265.135 16.8817C266.404 17.7991 267.038 19.0971 267.038 20.7756C267.038 21.8882 266.775 22.8251 266.248 23.5863C265.74 24.3475 265.038 24.9233 264.14 25.3137C263.261 25.704 262.295 25.8992 261.241 25.8992L261.739 25.1966C263.047 25.1966 264.169 25.4015 265.106 25.8114C266.062 26.2018 266.804 26.7971 267.331 27.5973C267.858 28.3781 268.122 29.354 268.122 30.5251C268.122 32.2622 267.477 33.609 266.189 34.5654C264.921 35.5218 262.998 36 260.422 36H250.994ZM253.161 34.2141H260.392C262.188 34.2141 263.564 33.9115 264.52 33.3065C265.477 32.6819 265.955 31.6962 265.955 30.3494C265.955 29.0222 265.477 28.056 264.52 27.4509C263.564 26.8263 262.188 26.5141 260.392 26.5141H252.926V24.7281H259.69C261.329 24.7281 262.598 24.4158 263.496 23.7912C264.413 23.1666 264.872 22.2395 264.872 21.0099C264.872 19.7607 264.413 18.8336 263.496 18.2285C262.598 17.6039 261.329 17.2916 259.69 17.2916H253.161V34.2141ZM272.628 36V14.276H274.706V36H272.628ZM286.756 36.1464C285.272 36.1464 283.935 35.8146 282.745 35.1509C281.573 34.4678 280.646 33.5407 279.963 32.3696C279.28 31.179 278.938 29.8224 278.938 28.3C278.938 26.758 279.28 25.4015 279.963 24.2304C280.646 23.0593 281.573 22.1419 282.745 21.4783C283.916 20.8147 285.253 20.4829 286.756 20.4829C288.278 20.4829 289.625 20.8147 290.796 21.4783C291.987 22.1419 292.914 23.0593 293.577 24.2304C294.26 25.4015 294.602 26.758 294.602 28.3C294.602 29.8224 294.26 31.179 293.577 32.3696C292.914 33.5407 291.987 34.4678 290.796 35.1509C289.605 35.8146 288.259 36.1464 286.756 36.1464ZM286.756 34.3019C287.868 34.3019 288.854 34.0579 289.713 33.57C290.571 33.0625 291.245 32.3598 291.733 31.462C292.24 30.5446 292.494 29.4906 292.494 28.3C292.494 27.0898 292.24 26.0359 291.733 25.138C291.245 24.2402 290.571 23.5473 289.713 23.0593C288.854 22.5518 287.878 22.2981 286.785 22.2981C285.692 22.2981 284.716 22.5518 283.857 23.0593C282.998 23.5473 282.315 24.2402 281.808 25.138C281.3 26.0359 281.046 27.0898 281.046 28.3C281.046 29.4906 281.3 30.5446 281.808 31.462C282.315 32.3598 282.998 33.0625 283.857 33.57C284.716 34.0579 285.682 34.3019 286.756 34.3019ZM305.404 41.8262C303.999 41.8262 302.652 41.6213 301.364 41.2114C300.076 40.8015 299.031 40.216 298.231 39.4548L299.285 37.8738C300.007 38.5179 300.895 39.0254 301.949 39.3962C303.023 39.7866 304.155 39.9818 305.346 39.9818C307.297 39.9818 308.732 39.5231 309.649 38.6057C310.567 37.7079 311.025 36.3025 311.025 34.3897V30.5544L311.318 27.9194L311.113 25.2844V20.6293H313.104V34.1262C313.104 36.7807 312.45 38.7228 311.142 39.9525C309.854 41.2017 307.941 41.8262 305.404 41.8262ZM305.023 35.4144C303.56 35.4144 302.242 35.1022 301.071 34.4776C299.9 33.8335 298.973 32.9454 298.29 31.8133C297.626 30.6812 297.294 29.3833 297.294 27.9194C297.294 26.4555 297.626 25.1673 298.29 24.0547C298.973 22.9227 299.9 22.0443 301.071 21.4198C302.242 20.7952 303.56 20.4829 305.023 20.4829C306.39 20.4829 307.619 20.7659 308.712 21.3319C309.805 21.898 310.674 22.7372 311.318 23.8498C311.962 24.9623 312.284 26.3189 312.284 27.9194C312.284 29.5199 311.962 30.8764 311.318 31.989C310.674 33.1015 309.805 33.9506 308.712 34.5361C307.619 35.1217 306.39 35.4144 305.023 35.4144ZM305.228 33.57C306.36 33.57 307.366 33.3357 308.244 32.8673C309.122 32.3793 309.815 31.7157 310.323 30.8764C310.83 30.0176 311.084 29.0319 311.084 27.9194C311.084 26.8068 310.83 25.8309 310.323 24.9916C309.815 24.1523 309.122 23.4985 308.244 23.03C307.366 22.5421 306.36 22.2981 305.228 22.2981C304.116 22.2981 303.111 22.5421 302.213 23.03C301.334 23.4985 300.642 24.1523 300.134 24.9916C299.646 25.8309 299.402 26.8068 299.402 27.9194C299.402 29.0319 299.646 30.0176 300.134 30.8764C300.642 31.7157 301.334 32.3793 302.213 32.8673C303.111 33.3357 304.116 33.57 305.228 33.57Z"/>
</svg>