<svg xmlns="http://www.w3.org/2000/svg" viewBox="0 0 960 600" width="960" height="600">
  <defs>
    <linearGradient id="hdrG2" x1="0" y1="0" x2="0" y2="1">
      <stop offset="0%" stop-color="#2a2a2a"/>
      <stop offset="100%" stop-color="#1e1e1e"/>
    </linearGradient>
  </defs>

  <!-- Background -->
  <rect width="960" height="600" fill="#1a1a1a" rx="8"/>
  <rect width="960" height="3" fill="#f97316"/>

  <!-- Title bar -->
  <rect y="3" width="960" height="42" fill="url(#hdrG2)"/>
  <rect y="44" width="960" height="1" fill="#3a3a3a"/>
  <circle cx="22" cy="24" r="5.5" fill="#ef4444" opacity="0.8"/>
  <circle cx="40" cy="24" r="5.5" fill="#eab308" opacity="0.8"/>
  <circle cx="58" cy="24" r="5.5" fill="#22c55e" opacity="0.8"/>
  <text x="480" y="20" fill="#a0a0a0" font-family="'Courier New',monospace" font-size="11" text-anchor="middle">MARAPONE AI  ·  System Build Specification  ·  Document v1.0</text>
  <text x="480" y="35" fill="#e8e8e8" font-family="'Courier New',monospace" font-size="12" text-anchor="middle" font-weight="bold">Client: Northfield Construction Ltd.  ·  Engagement: Full Build  ·  Scoped 17 Mar 2026</text>

  <!-- Metrics strip -->
  <rect y="45" width="960" height="68" fill="#232323"/>
  <rect y="112" width="960" height="1" fill="#3a3a3a"/>

  <rect x="16" y="57" width="148" height="44" fill="#2e2e2e" rx="4" stroke="#3a3a3a" stroke-width="1"/>
  <text x="90" y="73" fill="#a0a0a0" font-family="'Courier New',monospace" font-size="9" text-anchor="middle">DOC TYPES MAPPED</text>
  <text x="90" y="93" fill="#e8e8e8" font-family="'Courier New',monospace" font-size="22" text-anchor="middle" font-weight="bold">8</text>

  <rect x="172" y="57" width="148" height="44" fill="#2e2e2e" rx="4" stroke="#f97316" stroke-width="1"/>
  <text x="246" y="73" fill="#a0a0a0" font-family="'Courier New',monospace" font-size="9" text-anchor="middle">MODULES SELECTED</text>
  <text x="246" y="93" fill="#f97316" font-family="'Courier New',monospace" font-size="22" text-anchor="middle" font-weight="bold">4</text>

  <rect x="328" y="57" width="148" height="44" fill="#2e2e2e" rx="4" stroke="#3a3a3a" stroke-width="1"/>
  <text x="402" y="73" fill="#a0a0a0" font-family="'Courier New',monospace" font-size="9" text-anchor="middle">EST. BUILD TIME</text>
  <text x="402" y="93" fill="#e8e8e8" font-family="'Courier New',monospace" font-size="17" text-anchor="middle" font-weight="bold">2–3 Weeks</text>

  <rect x="484" y="57" width="148" height="44" fill="#2e2e2e" rx="4" stroke="#3a3a3a" stroke-width="1"/>
  <text x="558" y="73" fill="#a0a0a0" font-family="'Courier New',monospace" font-size="9" text-anchor="middle">PRICING MODEL</text>
  <text x="558" y="93" fill="#22c55e" font-family="'Courier New',monospace" font-size="17" text-anchor="middle" font-weight="bold">Fixed Price</text>

  <rect x="640" y="57" width="148" height="44" fill="#2e2e2e" rx="4" stroke="#3a3a3a" stroke-width="1"/>
  <text x="714" y="73" fill="#a0a0a0" font-family="'Courier New',monospace" font-size="9" text-anchor="middle">DISCOVERY CALLS</text>
  <text x="714" y="93" fill="#e8e8e8" font-family="'Courier New',monospace" font-size="22" text-anchor="middle" font-weight="bold">2</text>

  <rect x="796" y="57" width="148" height="44" fill="#1e2618" rx="4" stroke="#22c55e" stroke-width="1.5"/>
  <text x="870" y="73" fill="#a0a0a0" font-family="'Courier New',monospace" font-size="9" text-anchor="middle">SPEC STATUS</text>
  <text x="870" y="93" fill="#22c55e" font-family="'Courier New',monospace" font-size="14" text-anchor="middle" font-weight="bold">SIGNED OFF</text>

  <!-- Left column: Document Operation Map -->
  <rect x="16" y="120" width="452" height="26" fill="#2e2e2e"/>
  <rect x="16" y="145" width="452" height="1" fill="#3a3a3a"/>
  <text x="32" y="137" fill="#f97316" font-family="'Courier New',monospace" font-size="10" font-weight="bold">◈  DOCUMENT OPERATION MAP</text>

  <!-- Right column: Modules + Timeline -->
  <rect x="492" y="120" width="452" height="26" fill="#2e2e2e"/>
  <rect x="492" y="145" width="452" height="1" fill="#3a3a3a"/>
  <text x="508" y="137" fill="#f97316" font-family="'Courier New',monospace" font-size="10" font-weight="bold">◈  SYSTEM MODULES  +  BUILD TIMELINE</text>

  <!-- Divider -->
  <rect x="472" y="120" width="1" height="358" fill="#3a3a3a"/>

  <!-- LEFT: Document types table header -->
  <rect x="16" y="146" width="452" height="22" fill="#2a2a2a"/>
  <rect x="16" y="167" width="452" height="1" fill="#3a3a3a"/>
  <text x="32" y="161" fill="#a0a0a0" font-family="'Courier New',monospace" font-size="9" font-weight="bold">DOCUMENT TYPE</text>
  <text x="260" y="161" fill="#a0a0a0" font-family="'Courier New',monospace" font-size="9" font-weight="bold">VOLUME</text>
  <text x="340" y="161" fill="#a0a0a0" font-family="'Courier New',monospace" font-size="9" font-weight="bold">MODULE ASSIGNED</text>

  <!-- Doc row 1 -->
  <rect x="16" y="168" width="452" height="28" fill="#1f1f1f"/>
  <rect x="16" y="195" width="452" height="1" fill="#3a3a3a"/>
  <text x="32" y="186" fill="#22c55e" font-family="'Courier New',monospace" font-size="10">✓  Blueprint Sets (CD)</text>
  <text x="260" y="186" fill="#e8e8e8" font-family="'Courier New',monospace" font-size="10">4–8 / project</text>
  <text x="340" y="186" fill="#f97316" font-family="'Courier New',monospace" font-size="9">Blueprint Auditor</text>

  <!-- Doc row 2 -->
  <rect x="16" y="196" width="452" height="28" fill="#232323"/>
  <rect x="16" y="223" width="452" height="1" fill="#3a3a3a"/>
  <text x="32" y="214" fill="#22c55e" font-family="'Courier New',monospace" font-size="10">✓  RFI Logs</text>
  <text x="260" y="214" fill="#e8e8e8" font-family="'Courier New',monospace" font-size="10">20–80 / project</text>
  <text x="340" y="214" fill="#f97316" font-family="'Courier New',monospace" font-size="9">RFI Intelligence</text>

  <!-- Doc row 3 -->
  <rect x="16" y="224" width="452" height="28" fill="#1f1f1f"/>
  <rect x="16" y="251" width="452" height="1" fill="#3a3a3a"/>
  <text x="32" y="242" fill="#22c55e" font-family="'Courier New',monospace" font-size="10">✓  Daily Site Reports</text>
  <text x="260" y="242" fill="#e8e8e8" font-family="'Courier New',monospace" font-size="10">20+ / month</text>
  <text x="340" y="242" fill="#f97316" font-family="'Courier New',monospace" font-size="9">Log Synthesis</text>

  <!-- Doc row 4 -->
  <rect x="16" y="252" width="452" height="28" fill="#232323"/>
  <rect x="16" y="279" width="452" height="1" fill="#3a3a3a"/>
  <text x="32" y="270" fill="#22c55e" font-family="'Courier New',monospace" font-size="10">✓  Change Order Log</text>
  <text x="260" y="270" fill="#e8e8e8" font-family="'Courier New',monospace" font-size="10">Variable</text>
  <text x="340" y="270" fill="#f97316" font-family="'Courier New',monospace" font-size="9">Risk Signals</text>

  <!-- Doc row 5 -->
  <rect x="16" y="280" width="452" height="28" fill="#1f1f1f"/>
  <rect x="16" y="307" width="452" height="1" fill="#3a3a3a"/>
  <text x="32" y="298" fill="#22c55e" font-family="'Courier New',monospace" font-size="10">✓  Subcontractor Agreements</text>
  <text x="260" y="298" fill="#e8e8e8" font-family="'Courier New',monospace" font-size="10">8–20 / project</text>
  <text x="340" y="298" fill="#f97316" font-family="'Courier New',monospace" font-size="9">Risk Signals</text>

  <!-- Doc row 6 -->
  <rect x="16" y="308" width="452" height="28" fill="#232323"/>
  <rect x="16" y="335" width="452" height="1" fill="#3a3a3a"/>
  <text x="32" y="326" fill="#22c55e" font-family="'Courier New',monospace" font-size="10">✓  Meeting Minutes</text>
  <text x="260" y="326" fill="#e8e8e8" font-family="'Courier New',monospace" font-size="10">Weekly</text>
  <text x="340" y="326" fill="#f97316" font-family="'Courier New',monospace" font-size="9">Log Synthesis</text>

  <!-- Doc row 7 -->
  <rect x="16" y="336" width="452" height="28" fill="#1f1f1f"/>
  <rect x="16" y="363" width="452" height="1" fill="#3a3a3a"/>
  <text x="32" y="354" fill="#22c55e" font-family="'Courier New',monospace" font-size="10">✓  Progress Draw Schedule</text>
  <text x="260" y="354" fill="#e8e8e8" font-family="'Courier New',monospace" font-size="10">Per phase</text>
  <text x="340" y="354" fill="#f97316" font-family="'Courier New',monospace" font-size="9">Risk Signals</text>

  <!-- Doc row 8 -->
  <rect x="16" y="364" width="452" height="28" fill="#232323"/>
  <rect x="16" y="391" width="452" height="1" fill="#3a3a3a"/>
  <text x="32" y="382" fill="#22c55e" font-family="'Courier New',monospace" font-size="10">✓  Supplier Delivery Notices</text>
  <text x="260" y="382" fill="#e8e8e8" font-family="'Courier New',monospace" font-size="10">Ongoing</text>
  <text x="340" y="382" fill="#f97316" font-family="'Courier New',monospace" font-size="9">Risk Signals</text>

  <text x="32" y="420" fill="#a0a0a0" font-family="'Courier New',monospace" font-size="9">All document types processed locally.  No external routing.  No cloud storage.</text>
  <text x="32" y="437" fill="#a0a0a0" font-family="'Courier New',monospace" font-size="9">File formats accepted:  PDF · XLSX · DOCX · MSG · EML</text>

  <!-- RIGHT: Modules -->
  <rect x="492" y="148" width="452" height="26" fill="#1e1e1e"/>
  <rect x="492" y="173" width="452" height="1" fill="#3a3a3a"/>
  <text x="508" y="163" fill="#a0a0a0" font-family="'Courier New',monospace" font-size="9" font-weight="bold">MODULE</text>
  <text x="760" y="163" fill="#a0a0a0" font-family="'Courier New',monospace" font-size="9" font-weight="bold">STATUS</text>

  <rect x="492" y="174" width="452" height="32" fill="#1f1f1f"/>
  <rect x="492" y="205" width="452" height="1" fill="#3a3a3a"/>
  <text x="508" y="188" fill="#e8e8e8" font-family="'Courier New',monospace" font-size="10" font-weight="bold">M-01  Blueprint Audit Engine</text>
  <text x="508" y="201" fill="#a0a0a0" font-family="'Courier New',monospace" font-size="9">Conflict detection · scope extraction · ambiguity flags</text>
  <rect x="760" y="180" width="72" height="18" fill="#22c55e" rx="3"/>
  <text x="796" y="193" fill="#1a1a1a" font-family="'Courier New',monospace" font-size="9" text-anchor="middle" font-weight="bold">INCLUDED</text>

  <rect x="492" y="206" width="452" height="32" fill="#232323"/>
  <rect x="492" y="237" width="452" height="1" fill="#3a3a3a"/>
  <text x="508" y="220" fill="#e8e8e8" font-family="'Courier New',monospace" font-size="10" font-weight="bold">M-02  RFI Intelligence Engine</text>
  <text x="508" y="233" fill="#a0a0a0" font-family="'Courier New',monospace" font-size="9">Critical path mapping · aging tracker · response monitoring</text>
  <rect x="760" y="212" width="72" height="18" fill="#22c55e" rx="3"/>
  <text x="796" y="225" fill="#1a1a1a" font-family="'Courier New',monospace" font-size="9" text-anchor="middle" font-weight="bold">INCLUDED</text>

  <rect x="492" y="238" width="452" height="32" fill="#1f1f1f"/>
  <rect x="492" y="269" width="452" height="1" fill="#3a3a3a"/>
  <text x="508" y="252" fill="#e8e8e8" font-family="'Courier New',monospace" font-size="10" font-weight="bold">M-03  Daily Log Synthesis</text>
  <text x="508" y="265" fill="#a0a0a0" font-family="'Courier New',monospace" font-size="9">Weekly rollup · delay pattern detection · claims record</text>
  <rect x="760" y="244" width="72" height="18" fill="#22c55e" rx="3"/>
  <text x="796" y="257" fill="#1a1a1a" font-family="'Courier New',monospace" font-size="9" text-anchor="middle" font-weight="bold">INCLUDED</text>

  <rect x="492" y="270" width="452" height="32" fill="#232323"/>
  <rect x="492" y="301" width="452" height="1" fill="#3a3a3a"/>
  <text x="508" y="284" fill="#e8e8e8" font-family="'Courier New',monospace" font-size="10" font-weight="bold">M-04  Delay &amp; Risk Signal Monitor</text>
  <text x="508" y="297" fill="#a0a0a0" font-family="'Courier New',monospace" font-size="9">Delay cluster analysis · draw risk · supply chain flags</text>
  <rect x="760" y="276" width="72" height="18" fill="#22c55e" rx="3"/>
  <text x="796" y="289" fill="#1a1a1a" font-family="'Courier New',monospace" font-size="9" text-anchor="middle" font-weight="bold">INCLUDED</text>

  <!-- Timeline -->
  <rect x="492" y="310" width="452" height="22" fill="#2a2a2a"/>
  <rect x="492" y="331" width="452" height="1" fill="#3a3a3a"/>
  <text x="508" y="325" fill="#f97316" font-family="'Courier New',monospace" font-size="10" font-weight="bold">BUILD TIMELINE</text>

  <rect x="492" y="332" width="452" height="24" fill="#1f1f1f"/>
  <rect x="492" y="355" width="452" height="1" fill="#3a3a3a"/>
  <text x="508" y="348" fill="#f97316" font-family="'Courier New',monospace" font-size="9" font-weight="bold">WEEK 1</text>
  <text x="568" y="348" fill="#e8e8e8" font-family="'Courier New',monospace" font-size="9">Model fine-tuning on client document corpus</text>

  <rect x="492" y="356" width="452" height="24" fill="#232323"/>
  <rect x="492" y="379" width="452" height="1" fill="#3a3a3a"/>
  <text x="508" y="372" fill="#f97316" font-family="'Courier New',monospace" font-size="9" font-weight="bold">WEEK 2</text>
  <text x="568" y="372" fill="#e8e8e8" font-family="'Courier New',monospace" font-size="9">Module integration · file structure mapping · local deployment</text>

  <rect x="492" y="380" width="452" height="24" fill="#1f1f1f"/>
  <rect x="492" y="403" width="452" height="1" fill="#3a3a3a"/>
  <text x="508" y="396" fill="#f97316" font-family="'Courier New',monospace" font-size="9" font-weight="bold">WEEK 3</text>
  <text x="568" y="396" fill="#e8e8e8" font-family="'Courier New',monospace" font-size="9">Validation on real docs · QA · team handover session</text>

  <text x="508" y="430" fill="#a0a0a0" font-family="'Courier New',monospace" font-size="9">Spec locked in writing before build begins.  No scope additions billed post-sign-off.</text>
  <text x="508" y="446" fill="#a0a0a0" font-family="'Courier New',monospace" font-size="9">Hardware provision available if required  (see §4 of specification document)</text>

  <!-- Bottom bar -->
  <rect y="480" width="960" height="1" fill="#f97316" opacity="0.4"/>
  <rect y="481" width="960" height="119" fill="#232323"/>
  <text x="16" y="502" fill="#f97316" font-family="'Courier New',monospace" font-size="10" font-weight="bold">BUILD SPECIFICATION SIGNED OFF  ·  17 Mar 2026  ·  Marapone Contracting Inc.  ×  Northfield Construction Ltd.</text>
  <text x="16" y="520" fill="#a0a0a0" font-family="'Courier New',monospace" font-size="9">Fixed-price engagement.  Scope, deliverables and timeline confirmed in writing before any build work begins.  No surprises.</text>
  <text x="16" y="538" fill="#3a3a3a" font-family="'Courier New',monospace" font-size="9">spec_id: BS-2026-0317-NFC  ·  engagement_type: full_build  ·  modules: 4  ·  doc_types: 8  ·  private_install: true</text>

  <rect x="16" y="548" width="450" height="36" fill="#1e2618" rx="4" stroke="#22c55e" stroke-width="1"/>
  <text x="32" y="563" fill="#22c55e" font-family="'Courier New',monospace" font-size="10" font-weight="bold">STATUS:</text>
  <text x="100" y="563" fill="#e8e8e8" font-family="'Courier New',monospace" font-size="10">Build commences Week of 20 Mar 2026.</text>
  <text x="32" y="578" fill="#a0a0a0" font-family="'Courier New',monospace" font-size="9">Estimated handover: 7 Apr 2026  ·  Installation: on-site, client hardware</text>

  <rect x="758" y="548" width="88" height="24" fill="#2e2e2e" rx="4" stroke="#3a3a3a" stroke-width="1"/>
  <text x="802" y="564" fill="#a0a0a0" font-family="'Courier New',monospace" font-size="10" text-anchor="middle">Export PDF</text>
  <rect x="858" y="548" width="88" height="24" fill="#f97316" rx="4"/>
  <text x="902" y="564" fill="#ffffff" font-family="'Courier New',monospace" font-size="10" text-anchor="middle">Share Spec</text>
</svg>
