<svg width="260" height="58" viewBox="0 0 260 58" fill="none" xmlns="http://www.w3.org/2000/svg">
<path d="M4.98504 43.7038C5.99735 42.5632 7.02393 41.4466 8.06951 40.3444C9.1151 39.2469 10.1797 38.1638 11.2585 37.0999C15.2698 33.1414 19.5139 29.4034 23.9101 25.7085H23.8959L24.7371 25.004V16.4352L18.2497 19.3298C18.1024 19.5598 17.7602 20.1014 17.3277 20.7819C17.1328 21.0838 16.9237 21.4193 16.7051 21.7595C16.4294 22.1909 16.1443 22.6365 15.8639 23.0774C15.6405 23.4273 15.4219 23.7723 15.2128 24.0934C15.1605 24.1749 15.1082 24.2516 15.0607 24.3283C14.7613 24.7931 14.4999 25.1957 14.305 25.488L13.9153 26.0775C12.114 28.8139 10.3365 31.4833 8.69211 34.1958C6.01161 38.6143 3.583 43.1144 1.43005 47.9067C1.62016 47.6671 1.81026 47.4275 2.00512 47.1927C2.97942 46.0042 3.97272 44.8396 4.98029 43.699L4.98504 43.7038Z" fill="white"/>
<path d="M25.6971 24.2037C33.8812 17.3315 41.4712 10.3442 48.1154 2.12524C41.1813 7.39686 34.0428 11.6573 26.2627 15.6973L26.3292 15.7308L25.6971 16.0136V24.2037Z" fill="white"/>
<path d="M36.5142 24.3571L36.5237 24.3715C41.3239 17.2308 45.5395 10.2675 49.0232 2.51825C42.3457 10.8186 34.7224 17.8586 26.5384 24.7453H36.2671L36.5142 24.3571Z" fill="white"/>
<path d="M36.5332 26.0967L33.135 31.4306C38.8287 36.5441 44.1707 41.902 49.0184 47.926C45.5442 40.1863 41.3286 33.2278 36.5332 26.0967Z" fill="white"/>
<path d="M32.4125 32.0632L32.308 32.1111C32.1702 32.1686 32.0038 32.2453 31.8137 32.3316L31.6759 32.3939C31.5618 32.4466 31.4383 32.4993 31.3052 32.5568C30.9963 32.691 30.6493 32.8444 30.2786 33.0073C30.1693 33.0552 30.06 33.1032 29.9459 33.1559L29.8414 33.2038C29.656 33.2853 29.4707 33.3667 29.2805 33.453L29.2378 33.4722H29.233C28.8576 33.6399 28.4773 33.8124 28.0924 33.9802L28.0496 33.9993C27.869 34.0808 27.6884 34.1623 27.5078 34.2437L27.3747 34.3012C27.2322 34.3635 27.0943 34.4258 26.9565 34.4881L26.89 34.5169C26.7474 34.584 26.6048 34.6463 26.467 34.7086C26.4147 34.7326 26.3624 34.7565 26.3101 34.7805C34.0712 38.8109 41.1907 43.0617 48.1058 48.3237C43.3199 42.4099 38.0492 37.124 32.4125 32.068V32.0632Z" fill="white"/>
<path d="M25.0223 34.3156C25.2267 34.2198 25.4548 34.1191 25.6877 34.0089C25.9443 33.8891 26.22 33.7693 26.5004 33.6399L26.5669 33.6111C26.7048 33.5488 26.8426 33.4865 26.9852 33.4242C27.0184 33.4099 27.0517 33.3955 27.085 33.3763L27.1182 33.3619C27.2988 33.2805 27.4794 33.199 27.66 33.1175L27.7028 33.0983C28.083 32.9258 28.468 32.7581 28.8435 32.5904H28.8482C29.2142 32.4274 29.5706 32.2693 29.908 32.1159C29.9983 32.0776 30.0839 32.0392 30.1694 32.0009C30.331 31.929 30.4831 31.8619 30.6304 31.7948H30.6447L30.659 31.7804L30.697 31.7661C30.8206 31.7134 30.9394 31.6606 31.0534 31.6079C31.3148 31.4929 31.5477 31.3923 31.7378 31.306L31.8281 31.2677C31.9659 31.2054 32.08 31.1574 32.1656 31.1191H32.1798L32.2036 31.1047L35.6493 25.7037H25.3883C20.6879 29.6335 16.1776 33.5872 11.924 37.7805C10.8499 38.8396 9.7948 39.9131 8.75397 41.0058C7.71314 42.0984 6.69132 43.2055 5.68851 44.3413C4.6857 45.4723 3.7019 46.6272 2.73711 47.8062C2.60404 47.9691 2.47571 48.132 2.34264 48.295C6.6628 44.9643 11.04 41.9738 15.6501 39.2661C18.3829 37.6607 21.1917 36.1367 24.1383 34.7325L24.1241 34.723L25.0128 34.3108L25.0223 34.3156Z" fill="white"/>
<path d="M6.0687 6.52944C7.00022 7.56938 7.946 8.59016 8.90604 9.59656C10.3461 11.1062 11.8242 12.5822 13.3308 14.0295C14.8659 15.5056 16.4295 16.9529 18.0264 18.381L24.1193 15.6637C16.3582 11.6333 9.23873 7.38727 2.32361 2.12524C3.54029 3.63005 4.79024 5.10131 6.0687 6.52944Z" fill="white"/>
<path d="M1.42529 2.53264C4.90424 10.2723 9.11509 17.2309 13.9105 24.3619C14.7993 22.9865 16.2868 20.6526 17.052 19.4545C17.1566 19.2916 17.2469 19.1478 17.3182 19.0328C15.745 17.619 14.1957 16.1861 12.6748 14.7292C10.1512 12.2995 7.7083 9.79789 5.36525 7.17646C4.02024 5.66686 2.70376 4.12371 1.42529 2.53264Z" fill="white"/>
<path d="M91.3072 29.736C90.8267 35.0509 88.885 39.1138 85.4822 41.9346C82.5053 44.3793 78.7062 45.6016 74.0997 45.6016C68.0518 45.6016 63.3661 43.4934 60.0326 39.2771C57.1399 35.6101 55.6985 30.8198 55.6985 24.9011C55.6985 18.9825 57.5064 13.6329 61.1223 9.64918C64.4558 5.96238 68.9236 4.12146 74.5257 4.12146C80.1278 4.12146 84.2488 5.80402 87.3694 9.16915C89.5141 11.4901 90.7128 14.0783 90.9604 16.9287H85.6952C85.0562 14.1278 83.6297 11.985 81.4106 10.5004C79.4789 9.20874 77.1459 8.56046 74.4167 8.56046C69.6666 8.56046 66.0903 10.4905 63.6979 14.3554C61.89 17.2801 60.9836 20.7838 60.9836 24.8764C60.9836 30.2259 62.3507 34.373 65.0799 37.3125C67.4376 39.8809 70.5334 41.1675 74.3622 41.1675C77.9632 41.1675 80.7717 40.059 82.7926 37.847C84.5658 35.917 85.6654 33.215 86.0914 29.741H91.3022L91.3072 29.736Z" fill="white"/>
<path d="M104.988 5.02216V16.6368C104.988 16.9931 104.953 18.1313 104.884 20.0663C107.028 16.7556 110.223 15.0977 114.458 15.0977C118.693 15.0977 121.497 16.5329 123.022 19.4031C123.75 20.8036 124.112 23.0058 124.112 26.0196V44.701H119.377V26.6035C119.377 24.0698 119.065 22.3427 118.446 21.4222C117.4 19.8634 115.617 19.0815 113.101 19.0815C111.437 19.0815 109.961 19.4724 108.688 20.2494C107.43 21.0313 106.498 22.12 105.894 23.5155C105.523 24.3667 105.275 25.2773 105.151 26.2522C105.047 27.2271 104.993 28.8453 104.993 31.1167V44.696H100.257V5.02216H104.993H104.988Z" fill="white"/>
<path d="M159.681 40.8954V44.5872C158.582 44.9781 157.472 45.1711 156.358 45.1711C155.065 45.1711 154.054 44.8 153.326 44.0527C152.618 43.3104 152.251 42.2563 152.237 40.8905C149.557 43.9884 146.095 45.5423 141.84 45.5423C138.789 45.5423 136.441 44.7109 134.791 43.0432C133.335 41.6081 132.612 39.7127 132.612 37.3571C132.612 33.5862 134.42 30.9733 138.036 29.5183C138.957 29.1472 139.829 28.8899 140.641 28.7463C141.458 28.588 143.539 28.3059 146.892 27.8952C148.809 27.6626 150.126 27.2766 150.855 26.7273C151.583 26.178 151.944 25.2921 151.944 24.0698C151.944 20.7195 149.78 19.0469 145.456 19.0469C143.043 19.0469 141.28 19.5764 140.166 20.6403C139.19 21.5608 138.595 22.9959 138.382 24.9457H133.756C133.825 21.635 135.069 19.1062 137.481 17.3742C139.571 15.85 142.35 15.0879 145.807 15.0879C149.849 15.0879 152.856 16.038 154.822 17.9334C155.53 18.6262 156.026 19.4724 156.313 20.482C156.615 21.4915 156.764 22.9069 156.764 24.7329C156.764 28.6672 156.704 32.6063 156.576 36.5554C156.556 37.2977 156.551 37.8817 156.551 38.3073C156.551 39.3712 156.694 40.1234 156.977 40.5639C157.259 40.9895 157.74 41.2023 158.413 41.2023C158.805 41.2023 159.23 41.0983 159.691 40.8855L159.681 40.8954ZM152.024 29.7905C151.35 30.2705 150.642 30.612 149.894 30.8248C149.166 31.0178 147.759 31.2405 145.664 31.4879C142.88 31.8442 140.958 32.2946 139.893 32.8439C138.278 33.6753 137.471 35.051 137.471 36.9612C137.471 38.5745 138.046 39.8216 139.2 40.7074C140.21 41.4695 141.538 41.8505 143.187 41.8505C144.836 41.8505 146.293 41.5041 147.709 40.8163C149.126 40.1234 150.255 39.1881 151.087 38.0004C151.459 37.4858 151.707 36.9662 151.83 36.4317C151.954 35.9022 152.019 35.1104 152.019 34.0662V29.7905H152.024Z" fill="white"/>
<path d="M172.302 15.9192V20.4077C173.154 19.1854 173.932 18.2649 174.645 17.6463C176.686 15.9291 179.227 15.068 182.278 15.068C184.175 15.068 185.849 15.4392 187.305 16.1864C188.757 16.9139 189.841 17.9383 190.55 19.2695C191.01 20.1009 191.322 21.0065 191.481 21.9814C191.659 22.9365 191.748 24.3122 191.748 26.0987V44.701H187.013V27.7714C187.013 25.8562 186.944 24.4755 186.8 23.6244C186.676 22.7583 186.429 22.0309 186.057 21.4469C185.012 19.8534 183.263 19.0567 180.817 19.0567C179.187 19.0567 177.721 19.4477 176.428 20.2246C175.15 21.0065 174.214 22.0655 173.61 23.4116C172.956 24.9011 172.624 27.3508 172.624 30.7703V44.696H167.889V15.9192H172.302Z" fill="white"/>
<path d="M227.387 10.1491H227.095C225.653 10.1491 224.331 10.4609 223.122 11.0844C221.914 11.6683 220.963 12.5245 220.259 13.6528C219.754 14.4693 219.432 15.3848 219.293 16.3993C219.17 16.3399 219.046 16.2756 218.917 16.2162C217.124 15.3601 215.063 14.9345 212.725 14.9345C210.388 14.9345 208.327 15.3601 206.534 16.2162C204.741 17.0328 203.324 18.1809 202.269 19.6605C201.259 21.1402 200.749 22.8524 200.749 24.7973C200.749 27.6774 201.779 30.0479 203.844 31.9185C204.28 32.3045 204.761 32.641 205.276 32.9429C204.305 33.3091 203.498 33.804 202.849 34.4275C201.68 35.5558 201.095 36.9167 201.095 38.5102C201.095 40.1037 201.541 41.3309 202.438 42.1871C202.973 42.6523 203.572 43.0333 204.231 43.35C202.804 43.6766 201.714 44.2606 200.976 45.1068C199.966 46.3539 199.456 47.7544 199.456 49.3083C199.456 51.4857 200.585 53.3563 202.844 54.9102C205.142 56.4641 208.59 57.246 213.181 57.246C215.826 57.246 218.204 56.8551 220.309 56.0781C222.449 55.3408 224.143 54.2669 225.391 52.8664C226.674 51.4659 227.318 49.813 227.318 47.9078C227.318 45.8095 226.54 44.1369 224.98 42.8898C223.424 41.6081 221.26 40.9647 218.496 40.9647H209.967C208.525 40.9647 207.396 40.7124 206.579 40.2076C205.801 39.6632 205.41 38.8467 205.41 37.758C205.41 36.8623 205.801 36.0457 206.579 35.3084C207.059 34.8481 207.738 34.4968 208.594 34.2394C209.828 34.5215 211.2 34.665 212.711 34.665C215.049 34.665 217.109 34.2543 218.902 33.4377C220.73 32.5816 222.151 31.4137 223.167 29.9341C224.177 28.4148 224.687 26.7075 224.687 24.7973C224.687 22.8871 224.182 21.1402 223.167 19.6605C222.85 19.2003 222.488 18.7747 222.092 18.3739C222.221 17.0624 222.711 16.0875 223.573 15.4591C224.623 14.6821 226.104 14.2912 228.011 14.2912H228.422L227.372 10.1491H227.387ZM208.228 44.9881H217.223C219.402 44.9881 220.903 45.2998 221.721 45.9234C222.577 46.5469 223.003 47.3832 223.003 48.4324C223.003 49.2885 222.652 50.0852 221.953 50.8226C221.255 51.5599 220.16 52.1637 218.684 52.6338C217.243 53.099 215.395 53.3316 213.137 53.3316C210.214 53.3316 207.921 52.906 206.247 52.0499C204.612 51.1937 203.795 50.0456 203.795 48.6056C203.795 47.4773 204.221 46.5815 205.078 45.9234C205.935 45.2998 206.985 44.9881 208.233 44.9881H208.228ZM217.807 29.172C216.445 30.3003 214.751 30.8644 212.725 30.8644C210.7 30.8644 209.006 30.3003 207.643 29.172C206.281 28.0436 205.598 26.5838 205.598 24.7973C205.598 23.0108 206.281 21.5113 207.643 20.4226C209.006 19.2943 210.7 18.7302 212.725 18.7302C214.751 18.7302 216.445 19.2943 217.807 20.4226C219.17 21.5113 219.853 22.9712 219.853 24.7973C219.853 26.6234 219.17 28.0436 217.807 29.172Z" fill="white"/>
<path d="M258.741 35.5013C257.25 42.1821 253.059 45.5175 246.159 45.5175C241.672 45.5175 238.2 43.9933 235.733 40.9449C233.603 38.3073 232.543 34.8333 232.543 30.5279C232.543 25.6732 233.96 21.7934 236.798 18.8885C239.265 16.3548 242.331 15.0879 246.001 15.0879C248.819 15.0879 251.301 15.8401 253.446 17.3445C255.308 18.6559 256.72 20.4177 257.676 22.6347C258.617 24.7973 259.087 27.7566 259.087 31.5077H237.412C237.64 38.2033 240.666 41.5536 246.481 41.5536C248.482 41.5536 250.082 41.0835 251.271 40.1432C252.475 39.1881 253.426 37.6342 254.119 35.4914H258.746L258.741 35.5013ZM254.194 27.6378C253.961 24.7676 253.025 22.5703 251.375 21.0461C249.939 19.7199 248.106 19.0518 245.872 19.0518C241.048 19.0518 238.249 21.9122 237.467 27.6329H254.194V27.6378Z" fill="white"/>
</svg>
