<svg xmlns="http://www.w3.org/2000/svg" viewBox="0 0 1080 1080" width="1080" height="1080">
  <defs>
    <linearGradient id="bgGrad" x1="0" y1="0" x2="0" y2="1">
      <stop offset="0%" stop-color="#1a1a1a"/>
      <stop offset="100%" stop-color="#232323"/>
    </linearGradient>
    <radialGradient id="orangeGlow" cx="50%" cy="38%" r="50%">
      <stop offset="0%" stop-color="#f97316" stop-opacity="0.12"/>
      <stop offset="100%" stop-color="#f97316" stop-opacity="0"/>
    </radialGradient>
    <linearGradient id="cardGrad" x1="0" y1="0" x2="1" y2="0">
      <stop offset="0%" stop-color="#f97316" stop-opacity="0.1"/>
      <stop offset="100%" stop-color="#2e2e2e" stop-opacity="0"/>
    </linearGradient>
    <linearGradient id="ctaBtn" x1="0" y1="0" x2="1" y2="0">
      <stop offset="0%" stop-color="#f97316"/>
      <stop offset="100%" stop-color="#fb923c"/>
    </linearGradient>
    <pattern id="dotGrid" x="0" y="0" width="36" height="36" patternUnits="userSpaceOnUse">
      <circle cx="18" cy="18" r="1.2" fill="#3a3a3a"/>
    </pattern>
  </defs>

  <!-- Background -->
  <rect width="1080" height="1080" fill="url(#bgGrad)"/>
  <rect width="1080" height="1080" fill="url(#dotGrid)" opacity="0.35"/>
  <ellipse cx="540" cy="380" rx="480" ry="320" fill="url(#orangeGlow)"/>

  <!-- Top bar -->
  <rect x="0" y="0" width="1080" height="80" fill="#1a1a1a" opacity="0.9"/>
  <text x="54" y="50" font-family="'DM Mono', 'Courier New', monospace" font-size="22" fill="#f97316" letter-spacing="2">MARAPONE CONTRACTING</text>
  <text x="1026" y="50" text-anchor="end" font-family="'DM Mono', 'Courier New', monospace" font-size="22" fill="#a0a0a0">@maraponehq</text>
  <rect x="0" y="78" width="1080" height="2" fill="#f97316" opacity="0.4"/>

  <!-- Main headline -->
  <text x="54" y="192" font-family="'Bebas Neue', Impact, 'Arial Narrow', sans-serif" font-size="94" fill="#e8e8e8" letter-spacing="2">CONSTRUCTION AI</text>
  <text x="54" y="292" font-family="'Bebas Neue', Impact, 'Arial Narrow', sans-serif" font-size="94" fill="#e8e8e8" letter-spacing="2">THAT YOU</text>
  <text x="54" y="392" font-family="'Bebas Neue', Impact, 'Arial Narrow', sans-serif" font-size="94" fill="#f97316" letter-spacing="2">ACTUALLY OWN.</text>

  <!-- Sub headline -->
  <text x="54" y="454" font-family="'DM Sans', system-ui, sans-serif" font-size="30" fill="#a0a0a0">No subscriptions. No data sharing. No monthly fees.</text>

  <!-- Orange line divider -->
  <rect x="54" y="480" width="160" height="4" rx="2" fill="#f97316"/>

  <!-- Feature card with orange left border -->
  <rect x="54" y="512" width="972" height="310" rx="16" fill="#2e2e2e" stroke="#f97316" stroke-width="2"/>
  <rect x="54" y="512" width="6" height="310" rx="3" fill="#f97316"/>
  <rect x="54" y="512" width="972" height="310" rx="16" fill="url(#cardGrad)"/>

  <!-- 4 points in 2x2 grid -->
  <!-- Row 1 -->
  <rect x="88" y="540" width="12" height="12" rx="3" fill="#f97316"/>
  <text x="116" y="553" font-family="'DM Sans', system-ui, sans-serif" font-size="29" fill="#e8e8e8" font-weight="600">Runs on your hardware</text>

  <rect x="560" y="540" width="12" height="12" rx="3" fill="#f97316"/>
  <text x="588" y="553" font-family="'DM Sans', system-ui, sans-serif" font-size="29" fill="#e8e8e8" font-weight="600">Fine-tuned on your documents</text>

  <rect x="54" y="588" width="972" height="1" fill="#3a3a3a" opacity="0.5"/>

  <!-- Row 2 -->
  <rect x="88" y="618" width="12" height="12" rx="3" fill="#f97316"/>
  <text x="116" y="631" font-family="'DM Sans', system-ui, sans-serif" font-size="29" fill="#e8e8e8" font-weight="600">One-time investment</text>
  <text x="116" y="665" font-family="'DM Sans', system-ui, sans-serif" font-size="24" fill="#a0a0a0">From $1,500 CAD</text>

  <rect x="560" y="618" width="12" height="12" rx="3" fill="#f97316"/>
  <text x="588" y="631" font-family="'DM Sans', system-ui, sans-serif" font-size="29" fill="#e8e8e8" font-weight="600">Full source code included</text>
  <text x="588" y="665" font-family="'DM Sans', system-ui, sans-serif" font-size="24" fill="#a0a0a0">No black boxes</text>

  <rect x="54" y="698" width="972" height="1" fill="#3a3a3a" opacity="0.5"/>

  <!-- Bonus point -->
  <rect x="88" y="724" width="12" height="12" rx="3" fill="#f97316"/>
  <text x="116" y="737" font-family="'DM Sans', system-ui, sans-serif" font-size="29" fill="#e8e8e8" font-weight="600">Private deployment</text>
  <text x="116" y="771" font-family="'DM Sans', system-ui, sans-serif" font-size="24" fill="#a0a0a0">Your data stays yours. Always.</text>

  <rect x="560" y="724" width="12" height="12" rx="3" fill="#f97316"/>
  <text x="588" y="737" font-family="'DM Sans', system-ui, sans-serif" font-size="29" fill="#e8e8e8" font-weight="600">Built for construction &amp; logistics</text>
  <text x="588" y="771" font-family="'DM Sans', system-ui, sans-serif" font-size="24" fill="#a0a0a0">Not generic SaaS</text>

  <!-- CTA button -->
  <rect x="54" y="872" width="640" height="130" rx="18" fill="url(#ctaBtn)"/>
  <text x="374" y="928" text-anchor="middle" font-family="'DM Mono', 'Courier New', monospace" font-size="22" fill="#1a1a1a" letter-spacing="2">START NOW — IT'S FREE</text>
  <text x="374" y="980" text-anchor="middle" font-family="'Bebas Neue', Impact, 'Arial Narrow', sans-serif" font-size="56" fill="#1a1a1a" letter-spacing="3">GET FREE ASSESSMENT →</text>

  <!-- URL block -->
  <rect x="734" y="872" width="292" height="130" rx="18" fill="#2e2e2e" stroke="#3a3a3a" stroke-width="1.5"/>
  <text x="880" y="928" text-anchor="middle" font-family="'DM Mono', 'Courier New', monospace" font-size="19" fill="#a0a0a0">VISIT US AT</text>
  <text x="880" y="968" text-anchor="middle" font-family="'DM Mono', 'Courier New', monospace" font-size="22" fill="#f97316">marapone.com</text>
  <text x="880" y="1000" text-anchor="middle" font-family="'DM Mono', 'Courier New', monospace" font-size="19" fill="#a0a0a0">@maraponehq</text>
</svg>
